<svg xmlns="http://www.w3.org/2000/svg" xmlns:svg="http://www.w3.org/2000/svg" id="svg88" width="355.858" height="355.858" version="1.1" viewBox="0 0 94.154 94.154"><defs id="defs82"><clipPath id="clipPath56" clipPathUnits="userSpaceOnUse"><path id="path54" d="M 0,500 H 1024 V 0 H 0 Z"/></clipPath></defs><metadata id="metadata85"/><g id="layer1" transform="translate(0,-202.846)"><g id="g50" transform="matrix(0.35277777,0,0,-0.35277777,-43.586858,339.52831)"><g id="g52" clip-path="url(#clipPath56)"><g id="g58" transform="translate(375.7163,120.5527)"><path style="fill:#3c5a99;fill-opacity:1;fill-rule:nonzero;stroke:none" id="path60" d="m 0,0 c 8.134,0 14.73,6.596 14.73,14.73 v 237.434 c 0,8.137 -6.596,14.731 -14.73,14.731 h -237.433 c -8.137,0 -14.73,-6.594 -14.73,-14.731 V 14.73 c 0,-8.134 6.593,-14.73 14.73,-14.73 z"/></g><g id="g62" transform="translate(307.7046,120.5527)"><path style="fill:#fff;fill-opacity:1;fill-rule:nonzero;stroke:none" id="path64" d="m 0,0 v 103.355 h 34.693 l 5.194,40.28 H 0 v 25.717 c 0,11.662 3.238,19.609 19.962,19.609 l 21.33,0.01 v 36.026 c -3.69,0.49 -16.351,1.587 -31.081,1.587 -30.753,0 -51.806,-18.771 -51.806,-53.244 v -29.705 h -34.781 v -40.28 h 34.781 L -41.595,0 Z"/></g></g></g></g></svg>